<mxfile host="app.diagrams.net" modified="2022-04-26T07:02:10.730Z" agent="5.0 (Windows NT 10.0; Win64; x64) AppleWebKit/537.36 (KHTML, like Gecko) Chrome/100.0.4896.127 Safari/537.36" etag="Wmd3yUGE3fqCH8Lb-D0U" version="17.4.6" type="github">
  <diagram id="_P7W0LvaPyDlFyakA82m" name="Page-1">
    <mxGraphModel dx="1038" dy="539" grid="1" gridSize="10" guides="1" tooltips="1" connect="1" arrows="1" fold="1" page="1" pageScale="1" pageWidth="850" pageHeight="1100" math="0" shadow="0">
      <root>
        <mxCell id="0" />
        <mxCell id="1" parent="0" />
        <mxCell id="HJIImEoVX1P1OV1O9YyN-3" value="&lt;span style=&quot;color: rgb(38, 38, 38); font-family: &amp;quot;open sans&amp;quot;, sans-serif; font-size: 18px; text-align: left; background-color: rgb(255, 255, 255);&quot;&gt;Structure chart for a ticket vending machine&lt;/span&gt;" style="text;html=1;strokeColor=none;fillColor=none;align=center;verticalAlign=middle;whiteSpace=wrap;rounded=0;fontSize=18;fontStyle=1" vertex="1" parent="1">
          <mxGeometry x="240" y="20" width="390" height="30" as="geometry" />
        </mxCell>
        <mxCell id="HJIImEoVX1P1OV1O9YyN-4" value="Start" style="rounded=0;whiteSpace=wrap;html=1;fontSize=18;" vertex="1" parent="1">
          <mxGeometry x="20" y="100" width="120" height="60" as="geometry" />
        </mxCell>
        <mxCell id="HJIImEoVX1P1OV1O9YyN-5" value="Give Travel Info" style="rounded=0;whiteSpace=wrap;html=1;fontSize=18;" vertex="1" parent="1">
          <mxGeometry x="310" y="100" width="120" height="60" as="geometry" />
        </mxCell>
        <mxCell id="HJIImEoVX1P1OV1O9YyN-6" value="Payment Info" style="rounded=0;whiteSpace=wrap;html=1;fontSize=18;" vertex="1" parent="1">
          <mxGeometry x="600" y="100" width="120" height="60" as="geometry" />
        </mxCell>
        <mxCell id="HJIImEoVX1P1OV1O9YyN-7" value="Message" style="rounded=0;whiteSpace=wrap;html=1;fontSize=18;" vertex="1" parent="1">
          <mxGeometry x="20" y="240" width="120" height="60" as="geometry" />
        </mxCell>
        <mxCell id="HJIImEoVX1P1OV1O9YyN-8" value="Get Ticket" style="rounded=0;whiteSpace=wrap;html=1;fontSize=18;" vertex="1" parent="1">
          <mxGeometry x="310" y="240" width="120" height="60" as="geometry" />
        </mxCell>
        <mxCell id="HJIImEoVX1P1OV1O9YyN-9" value="Payment" style="rounded=0;whiteSpace=wrap;html=1;fontSize=18;" vertex="1" parent="1">
          <mxGeometry x="600" y="240" width="120" height="60" as="geometry" />
        </mxCell>
        <mxCell id="HJIImEoVX1P1OV1O9YyN-10" value="Online&amp;nbsp;" style="rounded=0;whiteSpace=wrap;html=1;fontSize=18;" vertex="1" parent="1">
          <mxGeometry x="470" y="390" width="120" height="60" as="geometry" />
        </mxCell>
        <mxCell id="HJIImEoVX1P1OV1O9YyN-11" value="Cash" style="rounded=0;whiteSpace=wrap;html=1;fontSize=18;" vertex="1" parent="1">
          <mxGeometry x="730" y="390" width="120" height="60" as="geometry" />
        </mxCell>
        <mxCell id="HJIImEoVX1P1OV1O9YyN-12" value="" style="endArrow=none;html=1;rounded=0;fontSize=18;entryX=0;entryY=0.5;entryDx=0;entryDy=0;" edge="1" parent="1" target="HJIImEoVX1P1OV1O9YyN-5">
          <mxGeometry width="50" height="50" relative="1" as="geometry">
            <mxPoint x="140" y="130" as="sourcePoint" />
            <mxPoint x="190" y="80" as="targetPoint" />
          </mxGeometry>
        </mxCell>
        <mxCell id="HJIImEoVX1P1OV1O9YyN-13" value="" style="endArrow=none;html=1;rounded=0;fontSize=18;entryX=0;entryY=0.5;entryDx=0;entryDy=0;" edge="1" parent="1">
          <mxGeometry width="50" height="50" relative="1" as="geometry">
            <mxPoint x="430" y="129.5" as="sourcePoint" />
            <mxPoint x="600" y="129.5" as="targetPoint" />
          </mxGeometry>
        </mxCell>
        <mxCell id="HJIImEoVX1P1OV1O9YyN-14" value="" style="endArrow=none;html=1;rounded=0;fontSize=18;entryX=0;entryY=0.5;entryDx=0;entryDy=0;" edge="1" parent="1">
          <mxGeometry width="50" height="50" relative="1" as="geometry">
            <mxPoint x="140" y="269.5" as="sourcePoint" />
            <mxPoint x="310" y="269.5" as="targetPoint" />
          </mxGeometry>
        </mxCell>
        <mxCell id="HJIImEoVX1P1OV1O9YyN-15" value="" style="endArrow=none;html=1;rounded=0;fontSize=18;entryX=0;entryY=0.5;entryDx=0;entryDy=0;" edge="1" parent="1">
          <mxGeometry width="50" height="50" relative="1" as="geometry">
            <mxPoint x="430" y="269.5" as="sourcePoint" />
            <mxPoint x="600" y="269.5" as="targetPoint" />
          </mxGeometry>
        </mxCell>
        <mxCell id="HJIImEoVX1P1OV1O9YyN-16" value="" style="endArrow=none;html=1;rounded=0;fontSize=18;entryX=0.5;entryY=1;entryDx=0;entryDy=0;" edge="1" parent="1" target="HJIImEoVX1P1OV1O9YyN-6">
          <mxGeometry width="50" height="50" relative="1" as="geometry">
            <mxPoint x="660" y="240" as="sourcePoint" />
            <mxPoint x="710" y="190" as="targetPoint" />
          </mxGeometry>
        </mxCell>
        <mxCell id="HJIImEoVX1P1OV1O9YyN-17" value="" style="shape=rhombus;html=1;dashed=0;whitespace=wrap;perimeter=rhombusPerimeter;fontSize=18;" vertex="1" parent="1">
          <mxGeometry x="645" y="300" width="30" height="30" as="geometry" />
        </mxCell>
        <mxCell id="HJIImEoVX1P1OV1O9YyN-18" value="" style="endArrow=none;html=1;rounded=0;fontSize=18;entryX=0.5;entryY=1;entryDx=0;entryDy=0;" edge="1" parent="1" target="HJIImEoVX1P1OV1O9YyN-17">
          <mxGeometry width="50" height="50" relative="1" as="geometry">
            <mxPoint x="590" y="390" as="sourcePoint" />
            <mxPoint x="640" y="340" as="targetPoint" />
          </mxGeometry>
        </mxCell>
        <mxCell id="HJIImEoVX1P1OV1O9YyN-19" value="" style="endArrow=none;html=1;rounded=0;fontSize=18;entryX=0.5;entryY=1;entryDx=0;entryDy=0;" edge="1" parent="1" target="HJIImEoVX1P1OV1O9YyN-17">
          <mxGeometry width="50" height="50" relative="1" as="geometry">
            <mxPoint x="730" y="390" as="sourcePoint" />
            <mxPoint x="780" y="340" as="targetPoint" />
          </mxGeometry>
        </mxCell>
        <mxCell id="HJIImEoVX1P1OV1O9YyN-20" value="&lt;font style=&quot;font-size: 14px&quot;&gt;Request Trip Info&lt;/font&gt;" style="html=1;verticalAlign=bottom;startArrow=circle;startFill=1;endArrow=open;startSize=6;endSize=8;rounded=0;fontSize=18;" edge="1" parent="1">
          <mxGeometry y="-10" width="80" relative="1" as="geometry">
            <mxPoint x="260" y="110" as="sourcePoint" />
            <mxPoint x="180" y="110" as="targetPoint" />
            <mxPoint as="offset" />
          </mxGeometry>
        </mxCell>
        <mxCell id="HJIImEoVX1P1OV1O9YyN-21" value="&lt;font style=&quot;font-size: 14px&quot;&gt;Request Payment Info&lt;/font&gt;" style="html=1;verticalAlign=bottom;startArrow=circle;startFill=1;endArrow=open;startSize=6;endSize=8;rounded=0;fontSize=18;" edge="1" parent="1">
          <mxGeometry y="-10" width="80" relative="1" as="geometry">
            <mxPoint x="560" y="110" as="sourcePoint" />
            <mxPoint x="480" y="110" as="targetPoint" />
            <mxPoint as="offset" />
          </mxGeometry>
        </mxCell>
        <mxCell id="HJIImEoVX1P1OV1O9YyN-22" value="&lt;font style=&quot;font-size: 14px&quot;&gt;Show Message&lt;/font&gt;" style="html=1;verticalAlign=bottom;startArrow=oval;startFill=0;endArrow=open;startSize=6;endSize=8;rounded=0;fontSize=18;jumpSize=9;" edge="1" parent="1">
          <mxGeometry y="-10" width="80" relative="1" as="geometry">
            <mxPoint x="260" y="250" as="sourcePoint" />
            <mxPoint x="180" y="250" as="targetPoint" />
            <mxPoint as="offset" />
          </mxGeometry>
        </mxCell>
        <mxCell id="HJIImEoVX1P1OV1O9YyN-23" value="&lt;font style=&quot;font-size: 14px&quot;&gt;Get Ticket&lt;/font&gt;" style="html=1;verticalAlign=bottom;startArrow=circle;startFill=1;endArrow=open;startSize=6;endSize=8;rounded=0;fontSize=18;" edge="1" parent="1">
          <mxGeometry y="-30" width="80" relative="1" as="geometry">
            <mxPoint x="190" y="290" as="sourcePoint" />
            <mxPoint x="270" y="290" as="targetPoint" />
            <mxPoint as="offset" />
          </mxGeometry>
        </mxCell>
        <mxCell id="HJIImEoVX1P1OV1O9YyN-24" value="&lt;font style=&quot;font-size: 14px&quot;&gt;Processing&lt;/font&gt;&lt;span style=&quot;color: rgba(0 , 0 , 0 , 0) ; font-family: monospace ; font-size: 0px ; background-color: rgb(248 , 249 , 250)&quot;&gt;%3CmxGraphModel%3E%3Croot%3E%3CmxCell%20id%3D%220%22%2F%3E%3CmxCell%20id%3D%221%22%20parent%3D%220%22%2F%3E%3CmxCell%20id%3D%222%22%20value%3D%22%26lt%3Bfont%20style%3D%26quot%3Bfont-size%3A%2014px%26quot%3B%26gt%3BShow%20Message%26lt%3B%2Ffont%26gt%3B%22%20style%3D%22html%3D1%3BverticalAlign%3Dbottom%3BstartArrow%3Doval%3BstartFill%3D0%3BendArrow%3Dopen%3BstartSize%3D6%3BendSize%3D8%3Brounded%3D0%3BfontSize%3D18%3BjumpSize%3D9%3B%22%20edge%3D%221%22%20parent%3D%221%22%3E%3CmxGeometry%20y%3D%22-10%22%20width%3D%2280%22%20relative%3D%221%22%20as%3D%22geometry%22%3E%3CmxPoint%20x%3D%22260%22%20y%3D%22250%22%20as%3D%22sourcePoint%22%2F%3E%3CmxPoint%20x%3D%22180%22%20y%3D%22250%22%20as%3D%22targetPoint%22%2F%3E%3CmxPoint%20as%3D%22offset%22%2F%3E%3C%2FmxGeometry%3E%3C%2FmxCell%3E%3C%2Froot%3E%3C%2FmxGraphModel%3E&lt;/span&gt;" style="html=1;verticalAlign=bottom;startArrow=oval;startFill=0;endArrow=open;startSize=6;endSize=8;rounded=0;fontSize=18;jumpSize=9;" edge="1" parent="1">
          <mxGeometry y="-10" width="80" relative="1" as="geometry">
            <mxPoint x="560" y="250" as="sourcePoint" />
            <mxPoint x="480" y="250" as="targetPoint" />
            <mxPoint as="offset" />
          </mxGeometry>
        </mxCell>
        <mxCell id="HJIImEoVX1P1OV1O9YyN-25" value="&lt;font style=&quot;font-size: 14px&quot;&gt;Mode of Payment&lt;/font&gt;" style="html=1;verticalAlign=bottom;startArrow=oval;startFill=0;endArrow=open;startSize=6;endSize=8;rounded=0;fontSize=18;jumpSize=9;" edge="1" parent="1">
          <mxGeometry x="0.6667" y="60" width="80" relative="1" as="geometry">
            <mxPoint x="680" y="170" as="sourcePoint" />
            <mxPoint x="680" y="230" as="targetPoint" />
            <mxPoint as="offset" />
          </mxGeometry>
        </mxCell>
      </root>
    </mxGraphModel>
  </diagram>
</mxfile>
